<svg xmlns="http://www.w3.org/2000/svg" xmlns:xlink="http://www.w3.org/1999/xlink" width="500" zoomAndPan="magnify" viewBox="0 0 375 374.999991" height="500" preserveAspectRatio="xMidYMid meet" version="1.0"><defs><clipPath id="bf64ec174d"><path d="M 24.304688 31.5 L 350.585938 31.5 L 350.585938 311.96875 L 24.304688 311.96875 Z M 24.304688 31.5 " clip-rule="nonzero"/></clipPath><clipPath id="5eeabf65d8"><path d="M 350.691406 171.746094 L 269.09375 311.988281 L 105.898438 311.988281 L 24.304688 171.746094 L 105.898438 31.5 L 269.09375 31.5 Z M 350.691406 171.746094 " clip-rule="nonzero"/></clipPath><clipPath id="019c8b929a"><path d="M 92.730469 106.742188 L 282.269531 106.742188 L 282.269531 145.164062 L 92.730469 145.164062 Z M 92.730469 106.742188 " clip-rule="nonzero"/></clipPath><clipPath id="f0aa4c6f3d"><path d="M 0.730469 0.742188 L 190.269531 0.742188 L 190.269531 39.164062 L 0.730469 39.164062 Z M 0.730469 0.742188 " clip-rule="nonzero"/></clipPath><clipPath id="88a94f97b2"><rect x="0" width="191" y="0" height="40"/></clipPath><clipPath id="0b674f6dbe"><path d="M 131.15625 152.539062 L 282.269531 152.539062 L 282.269531 190.964844 L 131.15625 190.964844 Z M 131.15625 152.539062 " clip-rule="nonzero"/></clipPath><clipPath id="d3a8808e25"><path d="M 0.15625 0.539062 L 151.269531 0.539062 L 151.269531 38.964844 L 0.15625 38.964844 Z M 0.15625 0.539062 " clip-rule="nonzero"/></clipPath><clipPath id="cc3b7abbc9"><rect x="0" width="152" y="0" height="39"/></clipPath><clipPath id="079774366e"><path d="M 92 152 L 155 152 L 155 212 L 92 212 Z M 92 152 " clip-rule="nonzero"/></clipPath><clipPath id="0d55a81f0a"><path d="M 92.730469 180.570312 L 131.488281 152.53125 L 154.007812 183.664062 L 115.25 211.703125 Z M 92.730469 180.570312 " clip-rule="nonzero"/></clipPath><clipPath id="f7c5f89c86"><path d="M 0.640625 0.398438 L 62.078125 0.398438 L 62.078125 59.921875 L 0.640625 59.921875 Z M 0.640625 0.398438 " clip-rule="nonzero"/></clipPath><clipPath id="a3072450bb"><path d="M 0.730469 28.570312 L 39.488281 0.53125 L 62.007812 31.664062 L 23.25 59.703125 Z M 0.730469 28.570312 " clip-rule="nonzero"/></clipPath><clipPath id="e2a00ba06b"><rect x="0" width="63" y="0" height="60"/></clipPath><clipPath id="00a8441661"><path d="M 92.726562 180.453125 L 131.152344 180.453125 L 131.152344 237.648438 L 92.726562 237.648438 Z M 92.726562 180.453125 " clip-rule="nonzero"/></clipPath><clipPath id="508ebbfeb5"><path d="M 0.726562 0.453125 L 39.152344 0.453125 L 39.152344 57.648438 L 0.726562 57.648438 Z M 0.726562 0.453125 " clip-rule="nonzero"/></clipPath><clipPath id="d174209232"><rect x="0" width="40" y="0" height="58"/></clipPath><clipPath id="9ad0122982"><rect x="0" width="375" y="0" height="343"/></clipPath></defs><g transform="matrix(1, 0, 0, 1, 0, 6)"><g clip-path="url(#9ad0122982)"><g clip-path="url(#bf64ec174d)"><g clip-path="url(#5eeabf65d8)"><path stroke-linecap="butt" transform="matrix(1.388453, 0, 0, 1.388453, 24.302929, 31.499998)" fill="none" stroke-linejoin="miter" d="M 235.073427 101.008867 L 176.304683 202.01492 L 58.767197 202.01492 L 0.00126653 101.008867 L 58.767197 0.00000177356 L 176.304683 0.00000177356 Z M 235.073427 101.008867 " stroke="#000000" stroke-width="10.803387" stroke-opacity="1" stroke-miterlimit="4"/></g></g><g clip-path="url(#019c8b929a)"><g transform="matrix(1, 0, 0, 1, 92, 106)"><g clip-path="url(#88a94f97b2)"><g clip-path="url(#f0aa4c6f3d)"><path fill="#000000" d="M 0.730469 0.742188 L 190.300781 0.742188 L 190.300781 39.164062 L 0.730469 39.164062 Z M 0.730469 0.742188 " fill-opacity="1" fill-rule="nonzero"/></g></g></g></g><g clip-path="url(#0b674f6dbe)"><g transform="matrix(1, 0, 0, 1, 131, 152)"><g clip-path="url(#cc3b7abbc9)"><g clip-path="url(#d3a8808e25)"><path fill="#000000" d="M 0.15625 0.539062 L 151.300781 0.539062 L 151.300781 38.964844 L 0.15625 38.964844 Z M 0.15625 0.539062 " fill-opacity="1" fill-rule="nonzero"/></g></g></g></g><g clip-path="url(#079774366e)"><g clip-path="url(#0d55a81f0a)"><g transform="matrix(1, 0, 0, 1, 92, 152)"><g clip-path="url(#e2a00ba06b)"><g clip-path="url(#f7c5f89c86)"><g clip-path="url(#a3072450bb)"><path fill="#000000" d="M 0.730469 28.570312 L 39.523438 0.503906 L 62.042969 31.636719 L 23.25 59.703125 Z M 0.730469 28.570312 " fill-opacity="1" fill-rule="nonzero"/></g></g></g></g></g></g><g clip-path="url(#00a8441661)"><g transform="matrix(1, 0, 0, 1, 92, 180)"><g clip-path="url(#d174209232)"><g clip-path="url(#508ebbfeb5)"><path fill="#000000" d="M 0.726562 57.648438 L 0.726562 0.460938 L 39.152344 0.460938 L 39.152344 57.648438 Z M 0.726562 57.648438 " fill-opacity="1" fill-rule="nonzero"/></g></g></g></g></g></g></svg>